<svg width="128" height="128" viewBox="0 0 128 128" xmlns="http://www.w3.org/2000/svg">
  <defs>
    <linearGradient id="bg128" x1="0%" y1="0%" x2="100%" y2="100%">
      <stop offset="0%" style="stop-color:#1a73e8"/>
      <stop offset="100%" style="stop-color:#34a853"/>
    </linearGradient>
  </defs>
  
  <!-- Background -->
  <rect width="128" height="128" rx="20" fill="url(#bg128)"/>
  
  <!-- Main CAPTCHA box -->
  <rect x="16" y="24" width="96" height="56" rx="6" fill="none" stroke="white" stroke-width="4"/>
  
  <!-- CAPTCHA text representation (stylized blocks for A8X4K3Z) -->
  <!-- A -->
  <rect x="24" y="35" width="6" height="30" rx="1" fill="white"/>
  <rect x="32" y="35" width="6" height="30" rx="1" fill="white"/>
  <rect x="24" y="48" width="14" height="4" rx="1" fill="white"/>
  
  <!-- 8 -->
  <rect x="42" y="35" width="10" height="14" rx="2" fill="white"/>
  <rect x="42" y="51" width="10" height="14" rx="2" fill="white"/>
  <circle cx="47" cy="42" r="2" fill="#1a73e8"/>
  <circle cx="47" cy="58" r="2" fill="#1a73e8"/>
  
  <!-- X -->
  <rect x="56" y="35" width="4" height="30" rx="1" fill="white" transform="rotate(20 58 50)"/>
  <rect x="64" y="35" width="4" height="30" rx="1" fill="white" transform="rotate(-20 66 50)"/>
  
  <!-- 4 -->
  <rect x="74" y="35" width="4" height="20" rx="1" fill="white"/>
  <rect x="74" y="49" width="12" height="4" rx="1" fill="white"/>
  <rect x="82" y="35" width="4" height="30" rx="1" fill="white"/>
  
  <!-- K -->
  <rect x="90" y="35" width="4" height="30" rx="1" fill="white"/>
  <rect x="90" y="47" width="8" height="4" rx="1" fill="white"/>
  <rect x="96" y="35" width="4" height="12" rx="1" fill="white"/>
  <rect x="96" y="53" width="4" height="12" rx="1" fill="white"/>
  
  <!-- Success indicator -->
  <path d="M32 88 L48 100 L96 60" stroke="white" stroke-width="6" fill="none" stroke-linecap="round" stroke-linejoin="round"/>
  
  <!-- AI Brain icon -->
  <circle cx="96" cy="104" r="12" fill="white" opacity="0.95"/>
  <circle cx="92" cy="100" r="3" fill="#1a73e8"/>
  <circle cx="100" cy="108" r="3" fill="#34a853"/>
  <path d="M88 96 Q96 92 104 96" stroke="#1a73e8" stroke-width="2" fill="none"/>
  <path d="M88 112 Q96 116 104 112" stroke="#34a853" stroke-width="2" fill="none"/>
  
  <!-- Label -->
  <text x="64" y="120" font-family="Arial, sans-serif" font-size="10" font-weight="bold" fill="white" text-anchor="middle" opacity="0.9">CAPTCHA SOLVER</text>
</svg>
